<?xml version="1.0" encoding="UTF-8" standalone="no"?>
<!DOCTYPE svg PUBLIC "-//W3C//DTD SVG 1.1//EN"
 "http://www.w3.org/Graphics/SVG/1.1/DTD/svg11.dtd">
<!-- Generated by graphviz version 12.2.0 (0)
 -->
<!-- Pages: 1 -->
<svg width="312pt" height="476pt"
 viewBox="0.00 0.00 312.31 476.00" xmlns="http://www.w3.org/2000/svg" xmlns:xlink="http://www.w3.org/1999/xlink">
<g id="graph0" class="graph" transform="scale(1 1) rotate(0) translate(4 472)">
<polygon fill="white" stroke="none" points="-4,4 -4,-472 308.31,-472 308.31,4 -4,4"/>
<!-- 47 -->
<g id="node1" class="node">
<title>47</title>
<ellipse fill="none" stroke="black" cx="196" cy="-306" rx="27" ry="18"/>
<text text-anchor="middle" x="196" y="-301.32" font-family="Times,serif" font-size="14.00">47</text>
</g>
<!-- 53 -->
<g id="node2" class="node">
<title>53</title>
<ellipse fill="none" stroke="black" cx="197" cy="-162" rx="27" ry="18"/>
<text text-anchor="middle" x="197" y="-157.32" font-family="Times,serif" font-size="14.00">53</text>
</g>
<!-- 47&#45;&gt;53 -->
<g id="edge1" class="edge">
<title>47&#45;&gt;53</title>
<path fill="none" stroke="black" d="M196.12,-287.59C196.29,-263.61 196.6,-220.14 196.8,-191.42"/>
<polygon fill="black" stroke="black" points="200.3,-191.65 196.87,-181.62 193.3,-191.6 200.3,-191.65"/>
</g>
<!-- 13 -->
<g id="node4" class="node">
<title>13</title>
<ellipse fill="none" stroke="black" cx="150" cy="-18" rx="27" ry="18"/>
<text text-anchor="middle" x="150" y="-13.32" font-family="Times,serif" font-size="14.00">13</text>
</g>
<!-- 47&#45;&gt;13 -->
<g id="edge14" class="edge">
<title>47&#45;&gt;13</title>
<path fill="none" stroke="black" d="M170.5,-299.54C146.31,-292.86 111.29,-278.94 95,-252 54.2,-184.52 104.08,-89.09 132.65,-44.2"/>
<polygon fill="black" stroke="black" points="135.51,-46.22 138.05,-35.93 129.65,-42.38 135.51,-46.22"/>
</g>
<!-- 61 -->
<g id="node5" class="node">
<title>61</title>
<ellipse fill="none" stroke="black" cx="131" cy="-234" rx="27" ry="18"/>
<text text-anchor="middle" x="131" y="-229.32" font-family="Times,serif" font-size="14.00">61</text>
</g>
<!-- 47&#45;&gt;61 -->
<g id="edge17" class="edge">
<title>47&#45;&gt;61</title>
<path fill="none" stroke="black" d="M182.22,-290.15C173.6,-280.87 162.32,-268.73 152.54,-258.19"/>
<polygon fill="black" stroke="black" points="155.16,-255.88 145.79,-250.93 150.03,-260.64 155.16,-255.88"/>
</g>
<!-- 29 -->
<g id="node7" class="node">
<title>29</title>
<ellipse fill="none" stroke="black" cx="229" cy="-90" rx="27" ry="18"/>
<text text-anchor="middle" x="229" y="-85.33" font-family="Times,serif" font-size="14.00">29</text>
</g>
<!-- 47&#45;&gt;29 -->
<g id="edge19" class="edge">
<title>47&#45;&gt;29</title>
<path fill="none" stroke="black" d="M202.6,-288.36C211.59,-264.73 227.22,-219.87 233,-180 235.29,-164.17 233.6,-159.99 233,-144 232.7,-136.04 232.15,-127.42 231.55,-119.49"/>
<polygon fill="black" stroke="black" points="235.05,-119.36 230.75,-109.68 228.07,-119.93 235.05,-119.36"/>
</g>
<!-- 53&#45;&gt;13 -->
<g id="edge21" class="edge">
<title>53&#45;&gt;13</title>
<path fill="none" stroke="black" d="M191.42,-144.15C183.44,-120.03 168.65,-75.36 159.08,-46.43"/>
<polygon fill="black" stroke="black" points="162.51,-45.66 156.04,-37.26 155.86,-47.86 162.51,-45.66"/>
</g>
<!-- 53&#45;&gt;29 -->
<g id="edge10" class="edge">
<title>53&#45;&gt;29</title>
<path fill="none" stroke="black" d="M204.58,-144.41C208.21,-136.48 212.64,-126.78 216.73,-117.84"/>
<polygon fill="black" stroke="black" points="219.87,-119.4 220.84,-108.85 213.5,-116.49 219.87,-119.4"/>
</g>
<!-- 97 -->
<g id="node3" class="node">
<title>97</title>
<ellipse fill="none" stroke="black" cx="130" cy="-450" rx="27" ry="18"/>
<text text-anchor="middle" x="130" y="-445.32" font-family="Times,serif" font-size="14.00">97</text>
</g>
<!-- 97&#45;&gt;47 -->
<g id="edge4" class="edge">
<title>97&#45;&gt;47</title>
<path fill="none" stroke="black" d="M137.7,-432.43C148.98,-408.17 170.1,-362.71 183.59,-333.7"/>
<polygon fill="black" stroke="black" points="186.67,-335.38 187.71,-324.83 180.32,-332.43 186.67,-335.38"/>
</g>
<!-- 97&#45;&gt;53 -->
<g id="edge12" class="edge">
<title>97&#45;&gt;53</title>
<path fill="none" stroke="black" d="M120.74,-432.6C99.39,-392.41 51.79,-287.15 95,-216 109.15,-192.69 137.26,-179.17 160.39,-171.62"/>
<polygon fill="black" stroke="black" points="161.23,-175.02 169.81,-168.81 159.23,-168.32 161.23,-175.02"/>
</g>
<!-- 97&#45;&gt;13 -->
<g id="edge2" class="edge">
<title>97&#45;&gt;13</title>
<path fill="none" stroke="black" d="M108.82,-438.37C71.99,-418.21 0,-370.67 0,-307 0,-307 0,-307 0,-161 0,-97.06 72.76,-53.31 116.93,-32.63"/>
<polygon fill="black" stroke="black" points="118.16,-35.92 125.84,-28.61 115.28,-29.54 118.16,-35.92"/>
</g>
<!-- 97&#45;&gt;61 -->
<g id="edge3" class="edge">
<title>97&#45;&gt;61</title>
<path fill="none" stroke="black" d="M130.08,-431.85C130.25,-395.14 130.66,-308.66 130.87,-263.53"/>
<polygon fill="black" stroke="black" points="134.37,-263.76 130.91,-253.75 127.37,-263.73 134.37,-263.76"/>
</g>
<!-- 75 -->
<g id="node6" class="node">
<title>75</title>
<ellipse fill="none" stroke="black" cx="229" cy="-378" rx="27" ry="18"/>
<text text-anchor="middle" x="229" y="-373.32" font-family="Times,serif" font-size="14.00">75</text>
</g>
<!-- 97&#45;&gt;75 -->
<g id="edge16" class="edge">
<title>97&#45;&gt;75</title>
<path fill="none" stroke="black" d="M148.16,-436.16C163.23,-425.5 184.89,-410.19 201.99,-398.1"/>
<polygon fill="black" stroke="black" points="203.58,-401.26 209.72,-392.63 199.54,-395.55 203.58,-401.26"/>
</g>
<!-- 97&#45;&gt;29 -->
<g id="edge9" class="edge">
<title>97&#45;&gt;29</title>
<path fill="none" stroke="black" d="M157.06,-446.88C188.78,-442.79 240.16,-430.86 265,-396 330,-304.79 302.34,-249.59 265,-144 261.39,-133.79 255.32,-123.68 249.18,-115.07"/>
<polygon fill="black" stroke="black" points="252.1,-113.12 243.26,-107.27 246.52,-117.35 252.1,-113.12"/>
</g>
<!-- 61&#45;&gt;53 -->
<g id="edge11" class="edge">
<title>61&#45;&gt;53</title>
<path fill="none" stroke="black" d="M145,-218.15C153.75,-208.87 165.2,-196.73 175.13,-186.19"/>
<polygon fill="black" stroke="black" points="177.67,-188.6 181.98,-178.93 172.58,-183.8 177.67,-188.6"/>
</g>
<!-- 61&#45;&gt;13 -->
<g id="edge6" class="edge">
<title>61&#45;&gt;13</title>
<path fill="none" stroke="black" d="M132.52,-215.85C135.78,-179.14 143.46,-92.66 147.47,-47.53"/>
<polygon fill="black" stroke="black" points="150.94,-48.01 148.34,-37.74 143.97,-47.39 150.94,-48.01"/>
</g>
<!-- 61&#45;&gt;29 -->
<g id="edge13" class="edge">
<title>61&#45;&gt;29</title>
<path fill="none" stroke="black" d="M133.71,-215.92C137.38,-196.95 145.34,-166.08 161,-144 171.1,-129.75 186.12,-117.49 199.48,-108.35"/>
<polygon fill="black" stroke="black" points="201.08,-111.48 207.55,-103.09 197.26,-105.62 201.08,-111.48"/>
</g>
<!-- 75&#45;&gt;47 -->
<g id="edge15" class="edge">
<title>75&#45;&gt;47</title>
<path fill="none" stroke="black" d="M221.18,-360.41C217.44,-352.48 212.87,-342.78 208.65,-333.84"/>
<polygon fill="black" stroke="black" points="211.84,-332.39 204.41,-324.84 205.51,-335.38 211.84,-332.39"/>
</g>
<!-- 75&#45;&gt;53 -->
<g id="edge7" class="edge">
<title>75&#45;&gt;53</title>
<path fill="none" stroke="black" d="M230.22,-359.82C230.89,-349.46 231.66,-335.98 232,-324 232.45,-308.01 234.18,-303.85 232,-288 227.29,-253.69 215.62,-215.53 207.05,-190.51"/>
<polygon fill="black" stroke="black" points="210.36,-189.38 203.75,-181.1 203.76,-191.7 210.36,-189.38"/>
</g>
<!-- 75&#45;&gt;13 -->
<g id="edge20" class="edge">
<title>75&#45;&gt;13</title>
<path fill="none" stroke="black" d="M241.91,-361.85C249.71,-351.8 259.07,-337.93 264,-324 301.38,-218.42 327.34,-165.05 265,-72 247.57,-45.99 213.94,-32.52 187.53,-25.68"/>
<polygon fill="black" stroke="black" points="188.36,-22.28 177.83,-23.41 186.77,-29.1 188.36,-22.28"/>
</g>
<!-- 75&#45;&gt;61 -->
<g id="edge18" class="edge">
<title>75&#45;&gt;61</title>
<path fill="none" stroke="black" d="M208.46,-365.84C193.1,-356.51 172.64,-341.88 160,-324 147.23,-305.93 139.84,-281.9 135.72,-263.37"/>
<polygon fill="black" stroke="black" points="139.15,-262.7 133.76,-253.58 132.29,-264.08 139.15,-262.7"/>
</g>
<!-- 75&#45;&gt;29 -->
<g id="edge5" class="edge">
<title>75&#45;&gt;29</title>
<path fill="none" stroke="black" d="M236.26,-360.17C240.29,-349.93 244.9,-336.46 247,-324 260.31,-245.11 261.7,-222.82 248,-144 246.48,-135.26 243.65,-126.06 240.63,-117.82"/>
<polygon fill="black" stroke="black" points="243.97,-116.74 237.05,-108.72 237.46,-119.31 243.97,-116.74"/>
</g>
<!-- 29&#45;&gt;13 -->
<g id="edge8" class="edge">
<title>29&#45;&gt;13</title>
<path fill="none" stroke="black" d="M213.39,-75.17C202.21,-65.26 186.94,-51.73 174.19,-40.43"/>
<polygon fill="black" stroke="black" points="176.78,-38.06 166.98,-34.04 172.14,-43.3 176.78,-38.06"/>
</g>
</g>
</svg>
